<?xml version="1.0" standalone="no"?>
<!DOCTYPE svg PUBLIC "-//W3C//DTD SVG 20010904//EN"
 "http://www.w3.org/TR/2001/REC-SVG-20010904/DTD/svg10.dtd">
<svg version="1.0" xmlns="http://www.w3.org/2000/svg"
 width="300.000000pt" height="300.000000pt" viewBox="0 0 300.000000 300.000000"
 preserveAspectRatio="xMidYMid meet">
<metadata>
Created by potrace 1.11, written by Peter Selinger 2001-2013
</metadata>
<g transform="translate(0.000000,300.000000) scale(0.100000,-0.100000)"
fill="#000000" stroke="none">
<path d="M1204 2324 c-55 -89 -173 -285 -264 -434 -91 -149 -172 -283 -181
-298 -9 -15 -86 -142 -171 -282 -373 -614 -466 -767 -476 -787 l-11 -21 262 1
c289 0 263 -6 305 67 44 77 604 996 611 1003 4 4 8 -86 7 -200 l-1 -208 427
-2 426 -1 93 154 c52 85 105 175 119 199 46 80 46 79 46 -142 l0 -208 257 -2
257 -2 0 664 0 663 -244 0 c-134 -1 -248 -3 -253 -7 -5 -3 -35 -49 -67 -101
-68 -113 -69 -115 -123 -202 -24 -38 -43 -70 -43 -73 0 -3 -15 -29 -34 -58
-19 -28 -98 -158 -176 -287 -79 -129 -148 -243 -155 -253 -9 -13 -12 84 -13
465 0 266 -1 491 -1 500 -1 15 -23 17 -250 16 l-248 -1 -99 -163z"/>
</g>
</svg>
