<svg xmlns="http://www.w3.org/2000/svg" xmlns:xlink="http://www.w3.org/1999/xlink" viewBox="0 0 42.41 42.52"><defs><clipPath id="b103e208-cf7d-4d6c-8c5a-be48f0d9ae5a"><circle cx="21.21" cy="20.88" r="16.41" transform="translate(-6.38 9.7) rotate(-22.5)" style="fill:none"/></clipPath></defs><g id="f47f8f0c-c406-453b-a13f-92d0318b312f" data-name="Camada 2"><g id="a265a506-39d4-4482-89ab-029e46a725de" data-name="Laranja"><g style="clip-path:url(#b103e208-cf7d-4d6c-8c5a-be48f0d9ae5a)"><path d="M11.75,35.21c-4.16-12-1-15.84,2.05-19.57l.42-.51c2.46-3-.35-8.87-.38-8.92l.78-.38c.12.26,3.08,6.39.27,9.84l-.42.52c-2.9,3.54-5.91,7.2-1.9,18.74Z" style="fill:#fff"/><path d="M31.38,35.21l-.81-.28c4-11.54,1-15.2-1.9-18.74l-.42-.52c-2.81-3.45,0-9.3.1-9.54l.78.37c0,.06-2.67,5.6-.22,8.63l.42.51C32.39,19.37,35.55,23.22,31.38,35.21Z" style="fill:#fff"/><rect x="21.14" y="28.06" width="0.86" height="9.23" style="fill:#fff"/><path d="M21.57,18.83a.44.44,0,0,1-.43-.44.45.45,0,0,1,.19-.36,2,2,0,0,0,0-1,.45.45,0,0,1-.19-.37.43.43,0,0,1,.43-.43c.44,0,.69.47.69,1.29S22,18.83,21.57,18.83Zm0-.87Zm0-.84Z" style="fill:#fff"/><path d="M11.05,15.54V13.62H8.64V10.93h2.41V8.81l3.11,3.62ZM9.5,12.75h2.41v.71L13,12.38l-1.08-1.25v.66H9.5Z" style="fill:#fff"/><path d="M31.36,15.54l-3.11-3.11,3.11-3.62v2.12h2.41v2.69H31.36Zm-1.94-3.16,1.08,1.08v-.71h2.41v-1H30.5v-.66Z" style="fill:#fff"/><path d="M21.53,28.56l-.21-.15c-.06,0-7.43-4.72-10.86-6.06l-.36-.14.1-.37a11.77,11.77,0,0,1,1.09-2.69l.19-.35.36.16a25.44,25.44,0,0,0,9.73,2.25,17.29,17.29,0,0,0,9-2.23l.07,0,.88-.39.19.34a11.64,11.64,0,0,1,1.25,3l.12.46-.47.08c-2.2.34-9.53,5.12-10.79,6l0,0ZM11.14,21.7a97.71,97.71,0,0,1,10.42,5.84c1.35-.89,7.69-5.05,10.44-5.85a12,12,0,0,0-.85-2l-.14.06a18.11,18.11,0,0,1-9.44,2.36,26.1,26.1,0,0,1-9.71-2.17A9.85,9.85,0,0,0,11.14,21.7Z" style="fill:#fff"/></g><path d="M15.47,36.6l.11-.29-.67-.26-.12.28Z" style="fill:#c8421b"/><path d="M16.87,37l.08-.3-.69-.2-.09.29Z" style="fill:#c8421b"/><path d="M14.12,36l.13-.28-.64-.32-.14.28Z" style="fill:#c8421b"/><path d="M12.83,35.36,13,35.1l-.61-.38L12.2,35Z" style="fill:#c8421b"/><path d="M18.29,37.35l.05-.31-.7-.13-.06.3Z" style="fill:#c8421b"/><path d="M32.46,8.54l-.55-.48-.2.24c.19.15.37.31.54.47Z" style="fill:#c8421b"/><path d="M19.74,37.54l0-.31-.71-.08,0,.31Z" style="fill:#c8421b"/><path d="M10.44,33.69l.2-.24L10.1,33l-.21.23Z" style="fill:#c8421b"/><path d="M7.49,30.48l.26-.18c-.14-.2-.27-.4-.4-.6l-.26.17C7.22,30.07,7.35,30.28,7.49,30.48Z" style="fill:#c8421b"/><path d="M11.6,34.58l.18-.25-.58-.43-.19.25Z" style="fill:#c8421b"/><path d="M6.71,29.25,7,29.09c-.12-.2-.24-.41-.35-.62l-.27.14Z" style="fill:#c8421b"/><path d="M30.15,6.77l-.63-.38-.15.27L30,7Z" style="fill:#c8421b"/><path d="M31.34,7.6l-.59-.43-.17.26c.19.13.39.28.57.42Z" style="fill:#c8421b"/><path d="M8.38,31.63l.24-.2c-.15-.18-.31-.37-.45-.56l-.25.19Z" style="fill:#c8421b"/><path d="M33.49,9.57c-.16-.18-.33-.35-.5-.53l-.22.22.5.52Z" style="fill:#c8421b"/><path d="M9.37,32.7l.21-.21L9.09,32l-.23.21C9,32.36,9.19,32.53,9.37,32.7Z" style="fill:#c8421b"/><path d="M37.21,24.43l.3.07c.05-.24.1-.48.14-.72l-.31-.05C37.3,24,37.26,24.2,37.21,24.43Z" style="fill:#c8421b"/><path d="M35.74,28.46l.27.14c.12-.21.22-.43.33-.65l-.28-.13Z" style="fill:#c8421b"/><path d="M37.84,22.34l-.31,0c0,.24-.05.48-.08.71l.31,0C37.79,22.82,37.82,22.58,37.84,22.34Z" style="fill:#c8421b"/><path d="M37.9,20.88v0h-.31v0c0,.24,0,.48,0,.72h.3C37.9,21.37,37.9,21.12,37.9,20.88Z" style="fill:#c8421b"/><path d="M35,29.7l.26.17c.13-.21.26-.42.38-.63l-.27-.15C35.27,29.29,35.15,29.5,35,29.7Z" style="fill:#c8421b"/><path d="M28.88,6l-.65-.32L28.1,6l.64.31Z" style="fill:#c8421b"/><path d="M31.17,33.9l.19.25.57-.46-.2-.24C31.54,33.61,31.36,33.76,31.17,33.9Z" style="fill:#c8421b"/><path d="M32.26,33l.21.23.53-.5-.22-.22Z" style="fill:#c8421b"/><path d="M33.28,32l.23.21.48-.55-.24-.2Z" style="fill:#c8421b"/><path d="M34.2,30.87l.24.19c.15-.19.3-.39.44-.59l-.26-.17C34.49,30.49,34.34,30.69,34.2,30.87Z" style="fill:#c8421b"/><path d="M37,25.13c-.07.23-.13.46-.2.68l.29.1.21-.7Z" style="fill:#c8421b"/><path d="M35.73,13.28l.27-.14c-.11-.22-.23-.43-.35-.64l-.27.15C35.5,12.86,35.62,13.07,35.73,13.28Z" style="fill:#c8421b"/><path d="M36.35,27.16l.28.12.27-.68-.29-.11C36.52,26.72,36.44,26.94,36.35,27.16Z" style="fill:#c8421b"/><path d="M34.43,10.69c-.15-.2-.3-.39-.46-.57l-.23.2.45.55Z" style="fill:#c8421b"/><path d="M35,12l.26-.16c-.13-.21-.27-.41-.41-.61l-.25.18C34.75,11.64,34.88,11.84,35,12Z" style="fill:#c8421b"/><path d="M37.34,18c0,.23.08.47.11.7l.3,0c0-.24-.06-.48-.11-.72Z" style="fill:#c8421b"/><path d="M37.53,19.42c0,.23,0,.47,0,.71h.31c0-.25,0-.49-.05-.73Z" style="fill:#c8421b"/><path d="M37,16.6c.06.23.12.46.17.7l.3-.07c0-.24-.11-.48-.17-.71Z" style="fill:#c8421b"/><path d="M36.59,15.24c.09.22.16.45.24.67l.29-.09q-.1-.35-.24-.69Z" style="fill:#c8421b"/><path d="M36,13.92c.11.21.2.43.29.65l.29-.12c-.09-.22-.19-.44-.29-.66Z" style="fill:#c8421b"/><path d="M27.56,5.42l-.68-.26-.11.29.67.26Z" style="fill:#c8421b"/><path d="M5.77,26.51c-.08-.22-.16-.45-.23-.68l-.3.09c.07.24.15.47.24.7Z" style="fill:#c8421b"/><path d="M6.31,27.83c-.1-.22-.19-.44-.28-.66l-.29.12c.09.23.19.45.29.67Z" style="fill:#c8421b"/><path d="M5.34,25.14c-.07-.22-.12-.46-.17-.69l-.31.07c.06.23.11.47.18.71Z" style="fill:#c8421b"/><path d="M6,14.62l-.28-.12-.27.68.3.11C5.84,15.06,5.92,14.84,6,14.62Z" style="fill:#c8421b"/><path d="M4.47,20.88v0h.31v0c0-.23,0-.47,0-.7H4.48C4.47,20.41,4.47,20.65,4.47,20.88Z" style="fill:#c8421b"/><path d="M5.53,16l-.3-.1c-.07.23-.14.47-.2.7l.3.08C5.39,16.42,5.45,16.19,5.53,16Z" style="fill:#c8421b"/><path d="M4.84,22.33c0-.24,0-.48,0-.71H4.48c0,.24,0,.49,0,.73Z" style="fill:#c8421b"/><path d="M5,23.75c0-.24-.08-.47-.11-.71l-.31,0c0,.24.07.48.11.72Z" style="fill:#c8421b"/><path d="M24.74,36.9l.07.3.71-.17-.08-.3Z" style="fill:#c8421b"/><path d="M20.48,37.27l0,.31.72,0h0v-.31h0Z" style="fill:#c8421b"/><path d="M28.76,35.44l.14.27c.22-.11.43-.23.64-.35l-.15-.27Z" style="fill:#c8421b"/><path d="M27.47,36l.12.29q.33-.13.66-.3l-.13-.28Z" style="fill:#c8421b"/><path d="M30.77,34.58l-.18-.26c-.19.14-.39.27-.59.4l.17.26Z" style="fill:#c8421b"/><path d="M26.13,36.53l.09.3.69-.24-.11-.29Z" style="fill:#c8421b"/><path d="M21.91,37.27v.31c.24,0,.49,0,.73,0l0-.3Z" style="fill:#c8421b"/><path d="M5.16,17.35l-.3-.07c-.06.24-.1.48-.15.72l.31.05C5.06,17.82,5.11,17.58,5.16,17.35Z" style="fill:#c8421b"/><path d="M23.33,37.15l0,.31.72-.11L24,37Z" style="fill:#c8421b"/><path d="M14.88,5.73l-.12-.29q-.33.13-.66.3l.13.28Z" style="fill:#c8421b"/><path d="M19,4.62,19,4.31l-.72.11.06.31C18.54,4.68,18.78,4.65,19,4.62Z" style="fill:#c8421b"/><path d="M17.61,4.87l-.07-.31c-.24.06-.48.11-.71.18l.08.3C17.14,5,17.37,4.92,17.61,4.87Z" style="fill:#c8421b"/><path d="M16.22,5.24l-.09-.3-.69.24.11.29Z" style="fill:#c8421b"/><path d="M26.18,4.93c-.23-.08-.46-.15-.7-.21L25.4,5l.69.2Z" style="fill:#c8421b"/><path d="M20.44,4.49V4.18l-.73.05,0,.31Z" style="fill:#c8421b"/><path d="M23.34,4.3l-.73-.08,0,.31.71.08Z" style="fill:#c8421b"/><path d="M13.59,6.33l-.14-.27c-.22.11-.43.23-.64.35l.15.27Z" style="fill:#c8421b"/><path d="M24.77,4.55l-.71-.14,0,.31.7.13Z" style="fill:#c8421b"/><path d="M4.53,19.44l.31,0c0-.24,0-.48.07-.71l-.3,0C4.57,19,4.55,19.2,4.53,19.44Z" style="fill:#c8421b"/><path d="M21.87,4.49V4.18l-.7,0h0v.31h0Z" style="fill:#c8421b"/><path d="M9.08,9.81,8.85,9.6c-.16.18-.33.36-.48.55l.24.19C8.76,10.16,8.92,10,9.08,9.81Z" style="fill:#c8421b"/><path d="M8.16,10.9l-.25-.19-.43.59.25.18C7.87,11.29,8,11.09,8.16,10.9Z" style="fill:#c8421b"/><path d="M7.34,12.08l-.26-.17c-.14.21-.26.42-.38.62l.26.16C7.08,12.48,7.21,12.28,7.34,12.08Z" style="fill:#c8421b"/><path d="M6.62,13.32l-.27-.15c-.12.22-.22.44-.33.66L6.3,14C6.4,13.74,6.51,13.53,6.62,13.32Z" style="fill:#c8421b"/><path d="M11.18,7.87,11,7.63l-.57.45.2.24Z" style="fill:#c8421b"/><path d="M10.09,8.79l-.21-.22-.53.5.22.22C9.74,9.12,9.91,9,10.09,8.79Z" style="fill:#c8421b"/><path d="M12.35,7.05l-.16-.26c-.21.13-.41.27-.61.41l.18.25C12,7.31,12.15,7.18,12.35,7.05Z" style="fill:#c8421b"/><path d="M3.37,20.88A17.7,17.7,0,0,1,5,13.46l-.28-.12a18.15,18.15,0,0,0-.21,14.6A18.23,18.23,0,0,0,8.37,33.7,18.05,18.05,0,0,0,21.18,39v-.31A17.83,17.83,0,0,1,3.37,20.88Z" style="fill:#c8421b"/><path d="M37.27,28.54l.28.13A18.11,18.11,0,0,0,34,8.07l-.22.22a17.8,17.8,0,0,1,3.49,20.25Z" style="fill:#c8421b"/><path d="M40.53,27a20.08,20.08,0,0,0,.94-6.13h.6A20.87,20.87,0,0,0,21.18,0V.59a20.09,20.09,0,0,0-7.89,1.6c-.45.19-.9.39-1.33.62l-.9-1.76A22.34,22.34,0,0,0,0,14l1.88.61a20,20,0,0,0-1,6.25H.3A20.59,20.59,0,0,0,3.21,31.51L2,32.21A22.26,22.26,0,0,0,15.94,42.52l.32-1.34a20.76,20.76,0,0,0,4.92.58v-.59a20.31,20.31,0,0,0,7.9-1.59c.46-.2.91-.41,1.35-.64l.9,1.76A22.34,22.34,0,0,0,42.41,27.61ZM21.18,40.65v-.59A19.2,19.2,0,0,1,2,20.88H1.41a19.8,19.8,0,0,1,1-6.09l.28.09A19.64,19.64,0,0,1,12.33,3.53l-.13-.26a19.67,19.67,0,0,1,9-2.16V1.7A19.2,19.2,0,0,1,40.36,20.88H41a19.74,19.74,0,0,1-.93,6l-.28-.09a19.61,19.61,0,0,1-9.69,11.45l.13.26A19.61,19.61,0,0,1,21.18,40.65Z" style="fill:#c8421b"/></g></g></svg>